<?xml version="1.0" encoding="utf-8"?>
<!-- Created with "sPlan" (http://www.abacom-online.de) -->
<svg version="1.1" baseProfile="full"
xmlns="http://www.w3.org/2000/svg"
width="487" height="396">
<title>schema1</title>
<defs>
<style type="text/css">
<![CDATA[
polyline {stroke-linecap:round; stroke-linejoin:round}
polygon {stroke-linecap:round; stroke-linejoin:round}
path {stroke-linecap:round; stroke-linejoin:round}
circle {stroke-linecap:round; stroke-linejoin:round}
]]>
</style>
</defs>
<path fill="rgb(255,255,255)" stroke="rgb(0,0,0)" stroke-width="2" style="stroke-linecap:square; stroke-linejoin:miter" d=" M 110 66 L 130 66 130 116 110 116 110 66" />
<polyline points="120.00 46.00 120.00 66.00" fill="none" stroke="rgb(0,0,0)" stroke-width="2" />
<polyline points="120.00 116.00 120.00 136.00" fill="none" stroke="rgb(0,0,0)" stroke-width="2" />
<text x="40.00" y="95.00" font-family ="Arial" font-size ="17pt" font-weight="normal" font-style="italic" fill="rgb(0,0,0)" transform=" rotate(0.000) scale(1.000,1.000)">R1</text>
<polyline points="120.00 136.00 120.00 161.00 135.00 166.00 105.00 176.00 135.00 186.00 105.00 196.00 135.00 206.00 120.00 211.00 120.00 236.00" fill="none" stroke="rgb(0,0,0)" stroke-width="2" />
<polyline points="144.00 186.00 170.00 186.00" fill="none" stroke="rgb(0,0,0)" stroke-width="2" />
<polygon points="140 186 152 182 152 190" fill="rgb(0,0,0)" stroke="rgb(0,0,0)" stroke-width="1" />
<text x="44.64" y="195.00" font-family ="ARIAL" font-size ="17pt" font-weight="normal" font-style="normal" fill="rgb(0,0,0)" transform=" rotate(0.000) scale(1.000,1.000)">R</text>
<path fill="rgb(255,255,255)" stroke="rgb(0,0,0)" stroke-width="2" style="stroke-linecap:square; stroke-linejoin:miter" d=" M 110 256 L 130 256 130 306 110 306 110 256" />
<polyline points="120.00 236.00 120.00 256.00" fill="none" stroke="rgb(0,0,0)" stroke-width="2" />
<polyline points="120.00 306.00 120.00 326.00" fill="none" stroke="rgb(0,0,0)" stroke-width="2" />
<text x="40.00" y="305.00" font-family ="Arial" font-size ="17pt" font-weight="normal" font-style="italic" fill="rgb(0,0,0)" transform=" rotate(0.000) scale(1.000,1.000)">R2</text>
<path fill="rgb(0,0,0)" stroke="rgb(0,0,0)" stroke-width="2" style="stroke-linecap:square; stroke-linejoin:miter" d=" M 150 116 L 150 116 150 156 150 156 150 116" />
<polyline points="160.00 136.00 190.00 136.00" fill="none" stroke="rgb(0,0,0)" stroke-width="2" />
<path fill="rgb(0,0,0)" stroke="rgb(0,0,0)" stroke-width="2" style="stroke-linecap:square; stroke-linejoin:miter" d=" M 160 116 L 160 116 160 156 160 156 160 116" />
<polyline points="120.00 136.00 150.00 136.00" fill="none" stroke="rgb(0,0,0)" stroke-width="2" />
<text x="140.00" y="95.00" font-family ="Arial" font-size ="17pt" font-weight="normal" font-style="italic" fill="rgb(0,0,0)" transform=" rotate(0.000) scale(1.000,1.000)">C1</text>
<path fill="rgb(0,0,0)" stroke="rgb(0,0,0)" stroke-width="2" style="stroke-linecap:square; stroke-linejoin:miter" d=" M 150 216 L 150 216 150 256 150 256 150 216" />
<polyline points="160.00 236.00 190.00 236.00" fill="none" stroke="rgb(0,0,0)" stroke-width="2" />
<path fill="rgb(0,0,0)" stroke="rgb(0,0,0)" stroke-width="2" style="stroke-linecap:square; stroke-linejoin:miter" d=" M 160 216 L 160 216 160 256 160 256 160 216" />
<polyline points="120.00 236.00 150.00 236.00" fill="none" stroke="rgb(0,0,0)" stroke-width="2" />
<text x="140.00" y="285.00" font-family ="Arial" font-size ="17pt" font-weight="normal" font-style="italic" fill="rgb(0,0,0)" transform=" rotate(0.000) scale(1.000,1.000)">C2</text>
<circle cx="190" cy="186" r="6" fill="rgb(0,0,0)" stroke="none" stroke-width="2" />
<circle cx="120" cy="136" r="6" fill="rgb(0,0,0)" stroke="none" stroke-width="2" />
<circle cx="120" cy="236" r="6" fill="rgb(0,0,0)" stroke="none" stroke-width="2" />
<path fill="rgb(255,255,255)" stroke="rgb(0,0,0)" stroke-width="2" style="stroke-linecap:square; stroke-linejoin:miter" d=" M 210 176 L 260 176 260 196 210 196 210 176" />
<polyline points="190.00 186.00 210.00 186.00" fill="none" stroke="rgb(0,0,0)" stroke-width="2" />
<polyline points="260.00 186.00 280.00 186.00" fill="none" stroke="rgb(0,0,0)" stroke-width="2" />
<text x="200.00" y="155.00" font-family ="Arial" font-size ="17pt" font-weight="normal" font-style="italic" fill="rgb(0,0,0)" transform=" rotate(0.000) scale(1.000,1.000)">R3</text>
<polyline points="190.00 136.00 190.00 236.00" fill="none" stroke="rgb(0,0,0)" stroke-width="2" />
<polyline points="190.00 186.00 170.00 186.00" fill="none" stroke="rgb(0,0,0)" stroke-width="2" />
<polyline points="370.00 136.00 370.00 161.00 355.00 166.00 385.00 176.00 355.00 186.00 385.00 196.00 355.00 206.00 370.00 211.00 370.00 236.00" fill="none" stroke="rgb(0,0,0)" stroke-width="2" />
<polyline points="346.00 186.00 320.00 186.00" fill="none" stroke="rgb(0,0,0)" stroke-width="2" />
<polygon points="350 186 338 182 338 190" fill="rgb(0,0,0)" stroke="rgb(0,0,0)" stroke-width="1" />
<text x="420.00" y="195.00" font-family ="ARIAL" font-size ="17pt" font-weight="normal" font-style="normal" fill="rgb(0,0,0)" transform=" rotate(0.000) scale(1.000,1.000)">R</text>
<path fill="rgb(255,255,255)" stroke="rgb(0,0,0)" stroke-width="2" style="stroke-linecap:square; stroke-linejoin:miter" d=" M 300 126 L 350 126 350 146 300 146 300 126" />
<polyline points="280.00 136.00 300.00 136.00" fill="none" stroke="rgb(0,0,0)" stroke-width="2" />
<polyline points="350.00 136.00 370.00 136.00" fill="none" stroke="rgb(0,0,0)" stroke-width="2" />
<text x="260.00" y="115.00" font-family ="Arial" font-size ="17pt" font-weight="normal" font-style="italic" fill="rgb(0,0,0)" transform=" rotate(0.000) scale(1.000,1.000)">R4</text>
<path fill="rgb(255,255,255)" stroke="rgb(0,0,0)" stroke-width="2" style="stroke-linecap:square; stroke-linejoin:miter" d=" M 300 226 L 350 226 350 246 300 246 300 226" />
<polyline points="280.00 236.00 300.00 236.00" fill="none" stroke="rgb(0,0,0)" stroke-width="2" />
<polyline points="350.00 236.00 370.00 236.00" fill="none" stroke="rgb(0,0,0)" stroke-width="2" />
<text x="270.00" y="285.00" font-family ="Arial" font-size ="17pt" font-weight="normal" font-style="italic" fill="rgb(0,0,0)" transform=" rotate(0.000) scale(1.000,1.000)">R5</text>
<polyline points="280.00 136.00 280.00 236.00" fill="none" stroke="rgb(0,0,0)" stroke-width="2" />
<circle cx="280" cy="186" r="6" fill="rgb(0,0,0)" stroke="none" stroke-width="2" />
<polyline points="320.00 186.00 280.00 186.00" fill="none" stroke="rgb(0,0,0)" stroke-width="2" />
<polyline points="370.00 236.00 370.00 266.00 350.00 266.00 390.00 266.00" fill="none" stroke="rgb(0,0,0)" stroke-width="2" />
<polyline points="350.00 276.00 390.00 276.00 370.00 276.00 370.00 306.00" fill="none" stroke="rgb(0,0,0)" stroke-width="2" />
<text x="420.00" y="285.00" font-family ="Arial" font-size ="17pt" font-weight="normal" font-style="italic" fill="rgb(0,0,0)" transform=" rotate(0.000) scale(1.000,1.000)">C4</text>
<polyline points="370.00 66.00 370.00 96.00 350.00 96.00 390.00 96.00" fill="none" stroke="rgb(0,0,0)" stroke-width="2" />
<polyline points="350.00 106.00 390.00 106.00 370.00 106.00 370.00 136.00" fill="none" stroke="rgb(0,0,0)" stroke-width="2" />
<text x="410.00" y="105.00" font-family ="Arial" font-size ="17pt" font-weight="normal" font-style="italic" fill="rgb(0,0,0)" transform=" rotate(0.000) scale(1.000,1.000)">C3</text>
<polyline points="370.00 66.00 370.00 46.00 80.00 46.00" fill="none" stroke="rgb(0,0,0)" stroke-width="2" />
<polyline points="280.00 136.00 280.00 66.00 430.00 66.00" fill="none" stroke="rgb(0,0,0)" stroke-width="2" />
<polyline points="120.00 326.00 120.00 356.00" fill="none" stroke="rgb(0,0,0)" stroke-width="2" />
<polyline points="100.00 356.00 140.00 356.00" fill="none" stroke="rgb(0,0,0)" stroke-width="4" />
<polyline points="370.00 326.00 370.00 356.00" fill="none" stroke="rgb(0,0,0)" stroke-width="2" />
<polyline points="350.00 356.00 390.00 356.00" fill="none" stroke="rgb(0,0,0)" stroke-width="4" />
<circle cx="370" cy="236" r="6" fill="rgb(0,0,0)" stroke="none" stroke-width="2" />
<circle cx="370" cy="136" r="6" fill="rgb(0,0,0)" stroke="none" stroke-width="2" />
<circle cx="280" cy="136" r="6" fill="rgb(0,0,0)" stroke="none" stroke-width="2" />
<polyline points="370.00 306.00 370.00 326.00" fill="none" stroke="rgb(0,0,0)" stroke-width="2" />
<circle cx="120" cy="46" r="6" fill="rgb(0,0,0)" stroke="none" stroke-width="2" />
</svg>
